<?xml version="1.0" standalone="no"?>
<!DOCTYPE svg PUBLIC "-//W3C//DTD SVG 20010904//EN"
 "http://www.w3.org/TR/2001/REC-SVG-20010904/DTD/svg10.dtd">
<svg version="1.0" xmlns="http://www.w3.org/2000/svg"
 width="70.000000pt" height="70.000000pt" viewBox="0 0 70.000000 70.000000"
 preserveAspectRatio="xMidYMid meet">
<metadata>
Created by potrace 1.11, written by Peter Selinger 2001-2013
</metadata>
<g transform="translate(0.000000,70.000000) scale(0.100000,-0.100000)"
fill="#000000" stroke="none">
<path d="M20 608 l-23 -19 38 -39 c43 -44 59 -49 74 -21 8 15 3 26 -28 58
l-37 40 -24 -19z"/>
<path d="M190 589 c-43 -42 -46 -55 -17 -73 14 -9 25 -3 59 31 l42 43 -21 20
-22 20 -41 -41z"/>
<path d="M134 482 l-131 -3 0 -24 c0 -14 2 -26 6 -27 3 0 57 -2 119 -3 l114
-2 41 -41 c33 -33 41 -48 41 -80 1 -31 9 -48 40 -83 l40 -43 118 -1 118 -1 0
28 c0 31 1 31 -134 28 -62 -1 -71 1 -97 26 -23 22 -29 37 -29 68 0 36 -7 48
-58 101 l-57 60 -131 -3z"/>
<path d="M5 358 c1 -13 3 -26 4 -31 0 -4 46 -7 100 -6 55 0 105 -2 110 -6 6
-3 11 -27 11 -53 0 -45 3 -50 74 -120 l74 -72 161 0 161 0 0 30 0 30 -149 0
-149 0 -58 58 c-53 51 -59 62 -60 100 -1 30 -9 51 -25 68 -21 23 -28 24 -139
24 -116 0 -117 0 -115 -22z"/>
</g>
</svg>
